<svg id="Calque_1" data-name="Calque 1" xmlns="http://www.w3.org/2000/svg" viewBox="0 0 767.79 139.32"><defs><style>.cls-1,.cls-2,.cls-3,.cls-4{isolation:isolate;}.cls-2,.cls-3,.cls-4{font-size:123.24px;font-family:Nunito-Bold, Nunito;font-weight:700;}.cls-2,.cls-3,.cls-4,.cls-5{fill:#fff;}.cls-2{letter-spacing:-0.01em;}.cls-4{letter-spacing:-0.06em;}</style></defs><g class="cls-1"><text class="cls-2" transform="translate(172.69 105.06)">P</text><text class="cls-3" transform="translate(251.81 105.06)">rime</text><text class="cls-4" transform="translate(506.41 105.06)">W</text><text class="cls-3" transform="translate(636.18 105.06)">a</text><text class="cls-3" transform="translate(702.97 105.06)">y</text></g><path class="cls-5" d="M22.59,82.7c-2.08,0-4.11-.08-6.14,0-5,.23-8.64-2.09-11.36-6.08C1.94,72,.61,66.72.17,61.24c-.56-7,.2-13.94,3.38-20.37,2-4,4.67-7.3,9.24-8.35A25.47,25.47,0,0,1,18,32.14c16-.49,31.4-4.33,46.37-9.74,12-4.36,23.93-9.21,35.87-13.85,3.82-1.49,5.63-1,7.91,2.35,4.07,6,6.42,12.7,8,19.68A117.9,117.9,0,0,1,115,88.28a50.32,50.32,0,0,1-7.25,16.1c-1.85,2.61-4,3.28-7,2.13C89.17,102,77.59,97.42,66,93c-3.8-1.45-7.71-2.6-11.88-4,.43,2.84.81,5.36,1.2,7.87,1.09,6.93,2.23,13.85,3.27,20.79a5.11,5.11,0,0,1-4.11,5.93,5.61,5.61,0,0,1-1.16.07H33.6a5,5,0,0,1-5.24-4.43c-1.39-8.47-2.71-17-4.06-25.43C23.76,90.27,23.22,86.75,22.59,82.7Zm78.5,13.11C112,76.7,111,35.39,101,19.18,94.43,21.8,87.83,24.44,81.22,27,65.71,33.13,50,38.48,33.41,40.91c-1.64.24-2.16.84-2.24,2.42-.15,3.08-.77,6.16-.72,9.24.12,6.7.52,13.39.9,20.08,0,.44.77,1.08,1.28,1.19,3.28.67,6.6,1.12,9.87,1.81C57,78.71,70.84,83.75,84.56,89.19,90,91.38,95.52,93.59,101.09,95.81Zm-68-11.7c.45,2.94.85,5.47,1.24,8,1.06,6.82,2.11,13.65,3.21,20.46a1.37,1.37,0,0,0,1,.91c3,.07,6,0,9,0q-2-13.31-4.08-26.42a1.27,1.27,0,0,0-.67-.89c-3.14-.71-6.3-1.36-9.66-2ZM21,72.56a132.61,132.61,0,0,1,0-30.2,22.46,22.46,0,0,1-3.48,0c-2.62-.41-4,1-4.93,3.14-.33.76-.68,1.52-.94,2.31a31.18,31.18,0,0,0-1.12,14.73,18.81,18.81,0,0,0,3,8.48,3.67,3.67,0,0,0,2,1.5A43.41,43.41,0,0,0,21,72.56Z" transform="translate(0 0)"/><path class="cls-5" d="M147.14,26.11A4.93,4.93,0,0,1,143.62,31q-7.53,2.13-15.13,4a5.07,5.07,0,0,1-2.41-9.84l.17,0c3.62-1,7.26-1.94,10.9-2.9,1.31-.34,2.61-.73,3.94-1A5,5,0,0,1,147,25,5.57,5.57,0,0,1,147.14,26.11Z" transform="translate(0 0)"/><path class="cls-5" d="M141.26,93.75c-1.8-.47-4.32-1.13-6.83-1.81-2.88-.76-5.77-1.47-8.61-2.34a5.08,5.08,0,0,1-3.48-4.75,4.91,4.91,0,0,1,3.32-4.68,5.75,5.75,0,0,1,3.05-.21q7.44,1.86,14.82,4a5,5,0,0,1,3.57,5.56C146.68,92,144.58,93.75,141.26,93.75Z" transform="translate(0 0)"/><path class="cls-5" d="M138.68,62.53h-7.39A5,5,0,0,1,126,57.8c0-.11,0-.22,0-.33A5,5,0,0,1,131,52.41h.29q7.4-.06,14.78,0a5,5,0,0,1,5.21,4.78v.31a5.11,5.11,0,0,1-5.21,5h-.12C143.5,62.55,141.09,62.53,138.68,62.53Z" transform="translate(0 0)"/></svg>