<svg id="Calque_1" data-name="Calque 1" xmlns="http://www.w3.org/2000/svg" viewBox="0 0 1000 181.46"><defs><style>.cls-1,.cls-2,.cls-3,.cls-4{isolation:isolate;}.cls-2,.cls-3,.cls-4{font-size:160.51px;font-family:Nunito-Bold, Nunito;font-weight:700;}.cls-2{letter-spacing:-0.01em;}.cls-4{letter-spacing:-0.06em;}.cls-5{fill:#1ea8e7;}</style></defs><g class="cls-1"><text class="cls-2" transform="translate(224.92 136.84)">P</text><text class="cls-3" transform="translate(327.97 136.84)">rime</text><text class="cls-4" transform="translate(659.57 136.84)">W</text><text class="cls-3" transform="translate(828.58 136.84)">a</text><text class="cls-3" transform="translate(915.57 136.84)">y</text></g><path class="cls-5" d="M29.42,107.71c-2.71,0-5.35-.1-8,0-6.51.3-11.25-2.72-14.79-7.92-4.1-6-5.84-12.89-6.41-20-.73-9.11.26-18.15,4.4-26.53,2.61-5.21,6.08-9.51,12-10.87a33.59,33.59,0,0,1,6.72-.5c20.84-.64,40.89-5.64,60.39-12.68,15.63-5.68,31.17-12,46.72-18,5-1.94,7.33-1.31,10.3,3.06,5.3,7.81,8.36,16.54,10.42,25.63A153.45,153.45,0,0,1,149.8,115a65.39,65.39,0,0,1-9.44,21c-2.41,3.4-5.21,4.27-9.11,2.77-15.11-5.88-30.2-11.83-45.34-17.63-5-1.89-10-3.39-15.48-5.21.56,3.7,1.06,7,1.57,10.25,1.42,9,2.9,18,4.26,27.08a6.64,6.64,0,0,1-5.36,7.71,6.36,6.36,0,0,1-1.51.1H43.76a6.5,6.5,0,0,1-6.82-5.77c-1.81-11-3.53-22.14-5.29-33.12C30.94,117.57,30.24,113,29.42,107.71Zm102.24,17.08c14.16-24.89,12.92-78.7-.09-99.81-8.58,3.41-17.18,6.85-25.79,10.24-20.2,7.93-40.69,14.9-62.27,18.06-2.13.32-2.81,1.1-2.91,3.16-.2,4-1,8-.94,12,.15,8.73.68,17.44,1.17,26.15,0,.58,1,1.41,1.67,1.55,4.27.88,8.59,1.46,12.85,2.36,18.87,4,36.91,10.55,54.78,17.64C117.27,119,124.41,121.9,131.66,124.79ZM43.1,109.55c.58,3.83,1.1,7.12,1.61,10.42,1.38,8.88,2.75,17.78,4.18,26.65a1.8,1.8,0,0,0,1.3,1.18c3.91.09,7.82,0,11.73,0q-2.62-17.33-5.32-34.41a1.62,1.62,0,0,0-.87-1.16c-4.09-.92-8.21-1.77-12.58-2.67Zm-15.7-15a172.52,172.52,0,0,1,0-39.34,28.55,28.55,0,0,1-4.53,0c-3.41-.53-5.21,1.31-6.42,4.09-.43,1-.89,2-1.23,3a40.68,40.68,0,0,0-1.45,19.19,24.32,24.32,0,0,0,3.9,11,4.76,4.76,0,0,0,2.61,2A56.39,56.39,0,0,0,27.4,94.51Z"/><path class="cls-5" d="M191.64,34a6.44,6.44,0,0,1-4.59,6.33q-9.8,2.77-19.7,5.21a6.6,6.6,0,0,1-3.13-12.81l.21-.06c4.72-1.3,9.46-2.53,14.2-3.78,1.7-.44,3.4-.95,5.13-1.3a6.5,6.5,0,0,1,7.73,5A6.62,6.62,0,0,1,191.64,34Z"/><path class="cls-5" d="M184,122.11c-2.34-.62-5.63-1.48-8.89-2.36-3.76-1-7.52-1.92-11.22-3a6.62,6.62,0,0,1-4.53-6.19,6.39,6.39,0,0,1,4.32-6.09,7.59,7.59,0,0,1,4-.28q9.69,2.43,19.3,5.21a6.53,6.53,0,0,1,4.65,7.25C191,119.8,188.31,122.11,184,122.11Z"/><path class="cls-5" d="M180.62,81.44H171a6.51,6.51,0,0,1-6.85-6.16c0-.14,0-.29,0-.43a6.52,6.52,0,0,1,6.43-6.59c.13,0,.25,0,.37,0q9.65-.08,19.25,0A6.51,6.51,0,0,1,197,74.49c0,.14,0,.27,0,.4a6.66,6.66,0,0,1-6.79,6.52H190C186.9,81.47,183.76,81.44,180.62,81.44Z"/></svg>