<?xml version="1.0" encoding="utf-8"?>
<!-- Generator: Adobe Illustrator 24.2.0, SVG Export Plug-In . SVG Version: 6.00 Build 0)  -->
<svg version="1.1" id="Calque_1" xmlns="http://www.w3.org/2000/svg" xmlns:xlink="http://www.w3.org/1999/xlink" x="0px" y="0px"
	 viewBox="0 0 1000 181.5" style="enable-background:new 0 0 1000 181.5;" xml:space="preserve">
<style type="text/css">
	.st0{font-family:'Nunito-Bold';}
	.st1{font-size:160.5125px;}
	.st2{letter-spacing:-1;}
	.st3{letter-spacing:-9;}
	.st4{fill:#1EA8E7;}
</style>
<text transform="matrix(1 0 0 1 224.9159 136.8359)" class="st0 st1 st2">P</text>
<text transform="matrix(1 0 0 1 327.9653 136.8359)" class="st0 st1">rime</text>
<text transform="matrix(1 0 0 1 659.5663 136.8359)" class="st0 st1 st3">W</text>
<text transform="matrix(1 0 0 1 828.5829 136.8359)" class="st0 st1">a</text>
<text transform="matrix(1 0 0 1 915.5732 136.8359)" class="st0 st1">y</text>
<path class="st4" d="M29.4,107.7c-2.7,0-5.4-0.1-8,0c-6.5,0.3-11.3-2.7-14.8-7.9c-4.1-6-5.8-12.9-6.4-20c-0.7-9.1,0.3-18.2,4.4-26.5
	c2.6-5.2,6.1-9.5,12-10.9c2.2-0.4,4.5-0.6,6.7-0.5c20.8-0.6,40.9-5.6,60.4-12.7c15.6-5.7,31.2-12,46.7-18c5-1.9,7.3-1.3,10.3,3.1
	c5.3,7.8,8.4,16.5,10.4,25.6c5.8,24.8,5.3,50.6-1.4,75.2c-1.9,7.5-5.1,14.6-9.4,21c-2.4,3.4-5.2,4.3-9.1,2.8
	c-15.1-5.9-30.2-11.8-45.3-17.6c-4.9-1.9-10-3.4-15.5-5.2c0.6,3.7,1.1,7,1.6,10.3c1.4,9,2.9,18,4.3,27.1c0.7,3.6-1.7,7.1-5.4,7.7
	c-0.5,0.1-1,0.1-1.5,0.1c-8.5,0-17.1,0-25.6,0c-3.4,0.2-6.4-2.3-6.8-5.8c-1.8-11-3.5-22.1-5.3-33.1C30.9,117.6,30.2,113,29.4,107.7z
	 M131.7,124.8c14.2-24.9,12.9-78.7-0.1-99.8c-8.6,3.4-17.2,6.9-25.8,10.2c-20.2,7.9-40.7,14.9-62.3,18.1c-2.1,0.3-2.8,1.1-2.9,3.2
	c-0.2,4-1,8-0.9,12c0.2,8.7,0.7,17.4,1.2,26.2c0,0.6,1,1.4,1.7,1.5c4.3,0.9,8.6,1.5,12.9,2.4c18.9,4,36.9,10.5,54.8,17.6
	C117.3,119,124.4,121.9,131.7,124.8z M43.1,109.5c0.6,3.8,1.1,7.1,1.6,10.4c1.4,8.9,2.7,17.8,4.2,26.6c0.2,0.6,0.7,1,1.3,1.2
	c3.9,0.1,7.8,0,11.7,0c-1.7-11.6-3.5-23-5.3-34.4c-0.1-0.5-0.4-0.9-0.9-1.2C51.6,111.3,47.5,110.5,43.1,109.5L43.1,109.5z
	 M27.4,94.5c-1.5-13.1-1.5-26.3,0-39.3c-1.5,0.1-3,0.1-4.5,0c-3.4-0.5-5.2,1.3-6.4,4.1c-0.4,1-0.9,2-1.2,3c-2,6.2-2.5,12.8-1.5,19.2
	c0.4,3.9,1.7,7.7,3.9,11c0.6,0.9,1.5,1.6,2.6,2C22.6,94.6,25,94.6,27.4,94.5z"/>
<path class="st4" d="M191.6,34c0.1,2.9-1.8,5.5-4.6,6.3c-6.5,1.8-13.1,3.6-19.7,5.2c-3.4,0.7-6.8-1.4-7.7-4.8c-1-3.5,1.1-7.1,4.6-8
	c0.1,0,0.1,0,0.2-0.1c4.7-1.3,9.5-2.5,14.2-3.8c1.7-0.4,3.4-1,5.1-1.3c3.5-0.8,7,1.5,7.7,5C191.6,33.1,191.6,33.5,191.6,34z"/>
<path class="st4" d="M184,122.1c-2.3-0.6-5.6-1.5-8.9-2.4c-3.8-1-7.5-1.9-11.2-3c-2.7-0.9-4.5-3.4-4.5-6.2c0-2.8,1.7-5.2,4.3-6.1
	c1.3-0.4,2.6-0.5,4-0.3c6.5,1.6,12.9,3.4,19.3,5.2c3.2,0.9,5.1,4,4.6,7.2C191,119.8,188.3,122.1,184,122.1z"/>
<path class="st4" d="M180.6,81.4c-3.2,0-6.4,0-9.6,0c-3.6,0.2-6.7-2.6-6.8-6.2c0-0.1,0-0.3,0-0.4c0-3.6,2.8-6.5,6.4-6.6
	c0.1,0,0.2,0,0.4,0c6.4-0.1,12.8-0.1,19.3,0c3.6-0.2,6.6,2.6,6.8,6.2c0,0.1,0,0.3,0,0.4c-0.1,3.7-3.1,6.6-6.8,6.5
	c-0.1,0-0.1,0-0.2,0C186.9,81.5,183.8,81.4,180.6,81.4z"/>
</svg>
